<?xml version="1.0" encoding="UTF-8" standalone="no" ?>
<!DOCTYPE svg PUBLIC "-//W3C//DTD SVG 1.1//EN" "http://www.w3.org/Graphics/SVG/1.1/DTD/svg11.dtd">
<svg xmlns="http://www.w3.org/2000/svg" xmlns:xlink="http://www.w3.org/1999/xlink" version="1.1" width="640" height="640" viewBox="0 0 640 640" xml:space="preserve">
<desc>Created with Fabric.js 5.3.0</desc>
<defs>
</defs>
<g transform="matrix(7.8143790323 0 0 7.8143790323 319.6422237591 317.5137834432)" id="qk4inTqVdpriL6zqWT2Yv"  >
<g style=""   >
		<g transform="matrix(0.438444561 0 0 0.438444561 0 0)" id="0XyBZMlmWJDfE3kCj7meE"  >
<path style="stroke: rgb(59,61,70); stroke-width: 0; stroke-dasharray: none; stroke-linecap: butt; stroke-dashoffset: 0; stroke-linejoin: miter; stroke-miterlimit: 4; fill: rgb(248,182,0); fill-rule: nonzero; opacity: 1;"  transform=" translate(0, 0)" d="M 0 -89.39169 C 49.34421 -89.39169 89.39169 -49.34421 89.39169 0 C 89.39169 49.34421 49.34421 89.39169 0 89.39169 C -49.34421 89.39169 -89.39169 49.34421 -89.39169 0 C -89.39169 -49.34421 -49.34421 -89.39169 0 -89.39169 z" stroke-linecap="round" />
</g>
		<g transform="matrix(0.368192896 0 0 0.368192896 -1.6031569325 1.6052520839)" id="m9JIhUYfL8GsICqD83-UG"  >
<path style="stroke: rgb(0,0,0); stroke-width: 0; stroke-dasharray: none; stroke-linecap: butt; stroke-dashoffset: 0; stroke-linejoin: miter; stroke-miterlimit: 4; fill: rgb(255,255,255); fill-rule: nonzero; opacity: 1;"  transform=" translate(-0.000005, 0.000005)" d="M -73.5023 -6.61957 L 73.50231000000001 -57.303810000000006 L 36.17512000000001 52.834439999999994 L -10.829489999999993 5.368999999999993 L 44.009220000000006 -35.64482000000001 L -23.732719999999993 3.52568999999999 L -18.202769999999994 37.16623999999999 L -14.327679999999994 11.035139999999988 L 7.164860000000008 34.61722999999999 L -20.29782999999999 57.303799999999995 L -35.52170999999999 3.5256899999999973 z" stroke-linecap="round" />
</g>
</g>
</g>
</svg>